<svg clip-rule="evenodd" fill-rule="evenodd" height="2314" image-rendering="optimizeQuality" shape-rendering="geometricPrecision" text-rendering="geometricPrecision" viewBox="0 -.57 708.94 655.68" width="2500" xmlns="http://www.w3.org/2000/svg"><path d="m293.76 605.77v-59.75c0-10.34 8.44-17.43 20.74-17.43h108.71v59.75c0 5.24-3.5 10.62-8.83 13.58-4.89 2.71-10.34 3.85-18.55 3.85zm-48.13 31.53c0 1.91.58 2.49 2.49 2.49h180.07c9 0 18.8-2.36 26.11-6.29 8.96-4.81 13.72-11.56 13.72-19.44v-117.83c0-1.91-.57-2.49-2.49-2.49h-175.92c-30.46 0-43.98 13.27-43.98 43.15zm-245.63 0c0 1.91.58 2.49 2.49 2.49h43.15c1.91 0 2.49-.58 2.49-2.49v-108.71h107.88c14.07 0 22.4 9.87 22.4 26.56v84.64h42.32c1.95 0 3.32-1.38 3.32-3.32v-99.58c0-27.75-15.99-43.15-44.81-43.15h-176.75c-1.91 0-2.49.58-2.49 2.49zm486.28-141.07c0 4.25 1.56 6.58 7.48 11.15 2.69 2.08 3.88 3.1 5.18 4.41 2.71 2.74 5.53 5.28 12.48 11.23 5.94 5.08 8.34 7.21 10.73 9.53l9.13 8.3c.74.71 1.26 1.13 2.3 1.85s1.56 1.14 2.3 1.85l13.97 12.58c.91.67 1.5 1.22 2.66 2.46.93 1 1.39 1.44 2.04 1.97l.63.52c2.5 2.06 3.23 2.91 3.46 4.05.32 1.57-.83 3.3-3.63 5.47l-17.9 16.12-.67.71c-.67.7-.97.99-1.41 1.36-.59.49-.92.73-1.45 1.04s-.86.54-1.45 1.04l-41.07 36.93a35.591 35.591 0 0 1 -3.53 3.14c-1.32 1.04-1.32 1.04-1.28 3.35l.03 2.01.99.72c1.88 1.39 2.89 1.77 4.82 1.77h34.02c5.94 0 12.24-2.84 25.87-11.65 3.54-2.3 4.97-3.19 6.51-4.1l66.37-41.51c-.38-.57-.74-1.05-1.61-2.14-1.58-1.99-2.23-2.96-2.82-4.21-2.81-5.95-2.81-12.27 0-18.82.48-1.11.9-1.84 1.79-3.1 1.27-1.78 1.63-2.77 1.81-4.92-1.4-.38-2.77-1.09-5.64-2.92l-.35-.22-18.07-10.97c-1.5-.91-2.81-1.75-5.81-3.74-3.03-2-4.34-2.83-5.83-3.71l-29.3-18c-4.87-2.79-8.54-5.01-14.64-8.84-12.05-7.58-12.05-7.58-33.99-7.36-6.11.07-12.21.11-18.31.15-1.93.01-2.94.38-4.81 1.78zm154.35 92.94c-1.23 0-2-.13-3-.51-1.41-.53-2.06-.23-8.46 3.98-.92.61-1.66 1.07-3.32 2.08-1.89 1.15-2.75 1.69-3.81 2.41-4.36 2.93-8.99 5.67-14.61 8.64l10.29 7.14c4.06 2.56 3.05 1.92 7.1 4.5 11.43 7.27 17.38 10.91 23.38 14.31 9.53 5.39 15.82 8.09 18.98 8.13l5.46.06c21.99.26 31.56-.02 33.5-1 2.02-1.02 2.8-2.46 2.32-4.27-.49-1.84-2.43-4.18-5.09-6.14l-21.03-18.8c-1.02-1.02-1.26-1.23-2.06-1.79l-1.15-.81c-.95-.7-1.44-1.14-2.51-2.26l-.92-.95-14.12-12.44c-3.32-3.35-5.51-5.01-7.26-5.5-1.34-.38-2.21-.19-4.46.94-3.38 1.71-5.7 2.28-9.23 2.28zm-33.2-61.41c1.4.37 2.4.89 4.61 2.4 1.13.77 1.66 1.11 2.31 1.48l20.47 12.72 2.83-.09c4.09-.12 5.84-.04 7.66.38 2.11.49 3.62 1.03 5.93 2.15 3.48 1.68 4.36 1.29 9.93-4.31l41.19-36.81c4.32-3.18 6.5-6.04 6.29-8.25-.22-2.29-3.06-3.69-7.44-3.69h-34.03c-5.35 0-23.59 9.82-45.3 24.4-.95.63-1.96 1.24-4.65 2.8-6.33 3.64-8.66 5.27-9.8 6.82zm-44.81-28.02.8.64c2.92 1.51 6.27 3.55 15.33 9.35 10.31 6.6 14.63 9.23 18.73 11.39 1.28-.86 3.23-2.04 9.54-5.78 9.45-5.6 13.91-8.32 18.16-11.04 6.59-4.21 10.04-6.87 10.47-8.07h-77.18c1.14 1.69 1.36 1.92 2.35 2.44.71.37 1.17.64 1.8 1.07zm.8 133.41-.8.64c-.63.42-1.09.7-1.8 1.07-.99.51-1.21.74-2.35 2.44h77.18c-.15-.42-.24-.7-.32-1.04-.05-.24-.05-.24-.3-.43l-.67-.56-36.88-22.87-1.43.72c-1.44.71-2.08 1.06-2.91 1.58zm0-132.77-.8-.64zm0 132.77-.8.64zm-563.05-624.68c0 13.41 4.94 20.77 23.62 35.22 8.48 6.55 12.25 9.76 16.33 13.89 8.57 8.67 17.48 16.68 39.41 35.45 18.73 16.03 26.31 22.76 33.88 30.09l28.8 26.2c2.35 2.24 3.98 3.55 7.26 5.83s4.92 3.59 7.26 5.84l44.09 39.72c2.87 2.12 4.75 3.85 8.39 7.76 2.94 3.15 4.39 4.55 6.44 6.23l2 1.64c7.9 6.48 10.2 9.16 10.92 12.76 1 4.97-2.61 10.41-11.46 17.26l-56.5 50.89-2.12 2.23c-2.11 2.22-3.06 3.13-4.45 4.3-1.86 1.57-2.89 2.31-4.57 3.29s-2.71 1.72-4.57 3.28l-129.65 116.57c-3.93 3.95-6.91 6.61-11.13 9.92-4.17 3.28-4.17 3.28-4.05 10.57l.1 6.34 3.14 2.26c5.92 4.42 9.12 5.6 15.2 5.6h107.39c18.74 0 38.63-8.96 81.64-36.78 11.19-7.24 15.69-10.07 20.57-12.93l209.48-131.02c-1.2-1.8-2.33-3.3-5.08-6.76-5-6.3-7.03-9.33-8.91-13.3-8.88-18.77-8.87-38.7.01-59.4 1.49-3.49 2.83-5.8 5.65-9.77 4-5.63 5.15-8.75 5.71-15.54-4.41-1.18-8.75-3.43-17.81-9.22l-1.09-.7-57.03-34.6c-4.75-2.89-8.89-5.55-18.34-11.8-9.58-6.34-13.7-8.96-18.42-11.72l-92.47-56.83c-15.38-8.81-26.96-15.8-46.21-27.9-38.05-23.91-38.05-23.91-107.3-23.21-19.27.19-38.53.34-57.79.44-6.08.04-9.28 1.22-15.19 5.64zm487.19 293.36c-3.89 0-6.3-.41-9.47-1.6-4.46-1.68-6.5-.72-26.71 12.57-2.89 1.9-5.24 3.37-10.46 6.56-5.97 3.63-8.67 5.34-12.05 7.6-13.75 9.24-28.37 17.88-46.08 27.26l32.46 22.53c12.83 8.09 9.62 6.06 22.42 14.21 36.07 22.96 54.83 34.44 73.78 45.17 30.08 17.03 49.95 25.53 59.92 25.65l17.23.21c69.42.83 99.63-.07 105.73-3.15 6.38-3.23 8.85-7.77 7.33-13.47-1.55-5.83-7.66-13.21-16.08-19.4l-66.37-59.35c-3.2-3.2-3.97-3.87-6.5-5.65l-3.63-2.55c-2.99-2.2-4.54-3.6-7.92-7.12l-2.91-3.01-44.56-39.25c-10.47-10.57-17.41-15.83-22.91-17.38-4.23-1.19-6.98-.61-14.1 2.99-10.64 5.38-17.97 7.18-29.12 7.18zm-104.77-193.83c4.4 1.18 7.55 2.82 14.52 7.56 3.58 2.44 5.25 3.51 7.29 4.68l64.62 40.15 8.94-.27c12.9-.4 18.43-.13 24.19 1.19 6.66 1.53 11.4 3.25 18.71 6.78 10.98 5.3 13.76 4.09 31.32-13.59l130.04-116.18c13.64-10.05 20.51-19.08 19.83-26.07-.7-7.2-9.64-11.64-23.49-11.64h-107.39c-16.89 0-74.47 31.01-143 77.02-2.98 2-6.17 3.92-14.67 8.83-19.96 11.52-27.33 16.65-30.91 21.54zm-141.44-88.45 2.52 2.02c9.2 4.76 19.77 11.21 48.36 29.51 32.55 20.83 46.21 29.14 59.12 35.97 4.05-2.71 10.22-6.45 30.11-18.24 29.85-17.7 43.93-26.26 57.34-34.84 20.78-13.32 31.67-21.72 33.04-25.5h-243.59c3.58 5.35 4.28 6.08 7.39 7.71 2.24 1.17 3.69 2.03 5.71 3.37zm2.52 421.1-2.52 2.02c-2.02 1.34-3.47 2.2-5.71 3.37-3.11 1.63-3.81 2.36-7.39 7.71h243.59c-.47-1.31-.75-2.22-1-3.28-.17-.75-.17-.75-.94-1.36l-2.12-1.77-116.43-72.17-4.5 2.24c-4.54 2.27-6.56 3.37-9.19 5zm0-419.08-2.52-2.02zm4.9 428.9-2.52 2.02zm0 202.62-2.52 2.02z"/></svg>